<svg width="241" height="23" viewBox="0 0 241 23" fill="none" xmlns="http://www.w3.org/2000/svg">
<path d="M5.53604 0.54V22H0.838042V0.54H5.53604ZM14.497 4.89H1.27304V0.54H14.497V4.89ZM13.076 13.619H1.15704V9.385H13.076V13.619ZM15.2785 14.721C15.2785 13.1937 15.6168 11.8597 16.2935 10.719C16.9895 9.559 17.9368 8.66 19.1355 8.022C20.3535 7.384 21.7358 7.065 23.2825 7.065C24.8291 7.065 26.2018 7.384 27.4005 8.022C28.5991 8.66 29.5368 9.559 30.2135 10.719C30.9095 11.8597 31.2575 13.1937 31.2575 14.721C31.2575 16.2483 30.9095 17.5823 30.2135 18.723C29.5368 19.8637 28.5991 20.753 27.4005 21.391C26.2018 22.029 24.8291 22.348 23.2825 22.348C21.7358 22.348 20.3535 22.029 19.1355 21.391C17.9368 20.753 16.9895 19.8637 16.2935 18.723C15.6168 17.5823 15.2785 16.2483 15.2785 14.721ZM19.7735 14.692C19.7735 15.4267 19.9185 16.0743 20.2085 16.635C20.5178 17.1763 20.9335 17.6017 21.4555 17.911C21.9775 18.201 22.5865 18.346 23.2825 18.346C23.9785 18.346 24.5875 18.201 25.1095 17.911C25.6315 17.6017 26.0375 17.1763 26.3275 16.635C26.6175 16.0743 26.7625 15.4267 26.7625 14.692C26.7625 13.9573 26.6175 13.3193 26.3275 12.778C26.0375 12.2367 25.6315 11.821 25.1095 11.531C24.5875 11.2217 23.9785 11.067 23.2825 11.067C22.5865 11.067 21.9775 11.2217 21.4555 11.531C20.9335 11.821 20.5178 12.2367 20.2085 12.778C19.9185 13.3193 19.7735 13.9573 19.7735 14.692ZM33.0636 14.692C33.0636 13.2033 33.3826 11.8887 34.0206 10.748C34.6586 9.588 35.5286 8.67933 36.6306 8.022C37.7519 7.36467 39.0376 7.036 40.4876 7.036C42.6336 7.036 44.3736 7.587 45.7076 8.689C47.0416 9.791 47.7763 11.2893 47.9116 13.184H43.4166C43.2619 12.4493 42.9526 11.908 42.4886 11.56C42.0439 11.212 41.4349 11.038 40.6616 11.038C40.0429 11.038 39.4919 11.1927 39.0086 11.502C38.5446 11.792 38.1869 12.2077 37.9356 12.749C37.6843 13.2903 37.5586 13.938 37.5586 14.692C37.5586 15.4653 37.6746 16.1323 37.9066 16.693C38.1579 17.2343 38.5059 17.65 38.9506 17.94C39.4146 18.23 39.9656 18.375 40.6036 18.375C41.3963 18.375 42.0246 18.201 42.4886 17.853C42.9719 17.4857 43.2813 16.9443 43.4166 16.229H47.9116C47.8149 17.447 47.4379 18.52 46.7806 19.448C46.1426 20.3567 45.2919 21.072 44.2286 21.594C43.1653 22.116 41.9569 22.377 40.6036 22.377C39.0763 22.377 37.7423 22.058 36.6016 21.42C35.4803 20.782 34.6103 19.8927 33.9916 18.752C33.3729 17.592 33.0636 16.2387 33.0636 14.692ZM59.9854 7.5H64.4514V22H60.2464L59.9564 20.376C59.5117 20.9753 58.8737 21.4587 58.0424 21.826C57.2304 22.1933 56.3894 22.377 55.5194 22.377C53.876 22.377 52.571 21.8647 51.6044 20.84C50.657 19.796 50.1834 18.3847 50.1834 16.606V7.5H54.6494V14.982C54.6494 16.1613 54.862 17.0313 55.2874 17.592C55.7127 18.1333 56.3797 18.404 57.2884 18.404C58.255 18.404 58.9414 18.143 59.3474 17.621C59.7727 17.0797 59.9854 16.2193 59.9854 15.04V7.5ZM66.4755 17.418H70.7095C70.7481 17.9207 70.9511 18.317 71.3185 18.607C71.6858 18.897 72.2078 19.042 72.8845 19.042C73.5805 19.042 74.0928 18.926 74.4215 18.694C74.7501 18.462 74.9145 18.1623 74.9145 17.795C74.9145 17.5823 74.8275 17.3697 74.6535 17.157C74.4988 16.9443 74.1508 16.78 73.6095 16.664L70.9415 16.084C69.6075 15.794 68.6118 15.33 67.9545 14.692C67.2971 14.0347 66.9685 13.068 66.9685 11.792C66.9685 10.7867 67.2295 9.936 67.7515 9.24C68.2928 8.52467 69.0178 7.98333 69.9265 7.616C70.8351 7.22933 71.8695 7.036 73.0295 7.036C74.1508 7.036 75.1368 7.239 75.9875 7.645C76.8575 8.051 77.5341 8.62133 78.0175 9.356C78.5008 10.0907 78.7425 10.951 78.7425 11.937H74.5085C74.5085 11.4343 74.3635 11.038 74.0735 10.748C73.7835 10.4387 73.3678 10.284 72.8265 10.284C72.3238 10.284 71.9178 10.4097 71.6085 10.661C71.3185 10.893 71.1735 11.2023 71.1735 11.589C71.1735 12.2077 71.6955 12.633 72.7395 12.865L75.4365 13.445C76.6351 13.6963 77.5438 14.1313 78.1625 14.75C78.8005 15.3493 79.1195 16.229 79.1195 17.389C79.1195 18.4137 78.8488 19.303 78.3075 20.057C77.7661 20.811 77.0121 21.391 76.0455 21.797C75.0788 22.1837 73.9671 22.377 72.7105 22.377C70.7965 22.377 69.2788 21.9227 68.1575 21.014C67.0361 20.086 66.4755 18.8873 66.4755 17.418ZM88.1811 22.377C86.7311 22.377 85.4357 22.0483 84.2951 21.391C83.1737 20.7337 82.2844 19.8347 81.6271 18.694C80.9891 17.534 80.6701 16.2097 80.6701 14.721C80.6701 13.213 80.9794 11.8887 81.5981 10.748C82.2361 9.588 83.1157 8.67933 84.2371 8.022C85.3584 7.36467 86.6441 7.036 88.0941 7.036C89.6214 7.036 90.9361 7.355 92.0381 7.993C93.1401 8.61167 93.9907 9.501 94.5901 10.661C95.1894 11.8017 95.4891 13.1647 95.4891 14.75V15.881L83.0191 15.939L83.0771 13.184H91.0521C91.0521 12.4107 90.7911 11.8017 90.2691 11.357C89.7471 10.893 89.0317 10.661 88.1231 10.661C87.3691 10.661 86.7504 10.806 86.2671 11.096C85.8031 11.386 85.4551 11.8403 85.2231 12.459C84.9911 13.0583 84.8751 13.8317 84.8751 14.779C84.8751 16.1323 85.1457 17.1377 85.6871 17.795C86.2477 18.433 87.1081 18.752 88.2681 18.752C89.1187 18.752 89.8244 18.607 90.3851 18.317C90.9457 18.027 91.3034 17.621 91.4581 17.099H95.5471C95.2957 18.7037 94.5031 19.9893 93.1691 20.956C91.8351 21.9033 90.1724 22.377 88.1811 22.377ZM104.224 22.377C102.832 22.377 101.623 22.0677 100.599 21.449C99.5741 20.8303 98.7717 19.9603 98.1917 18.839C97.6311 17.6983 97.3507 16.3643 97.3507 14.837C97.3507 13.2903 97.6407 11.937 98.2207 10.777C98.8007 9.59767 99.6224 8.67933 100.686 8.022C101.768 7.36467 103.044 7.036 104.514 7.036C105.422 7.036 106.263 7.20033 107.037 7.529C107.829 7.85767 108.438 8.29267 108.864 8.834V0.134H113.33V22H109.125L108.893 20.144C108.506 20.8013 107.887 21.3427 107.037 21.768C106.205 22.174 105.268 22.377 104.224 22.377ZM105.297 18.288C105.993 18.288 106.602 18.143 107.124 17.853C107.665 17.5437 108.081 17.1183 108.371 16.577C108.68 16.0163 108.835 15.3783 108.835 14.663C108.835 13.9283 108.68 13.2903 108.371 12.749C108.081 12.2077 107.665 11.792 107.124 11.502C106.602 11.1927 105.993 11.038 105.297 11.038C104.601 11.038 103.992 11.1927 103.47 11.502C102.948 11.8113 102.542 12.2367 102.252 12.778C101.981 13.3193 101.846 13.9477 101.846 14.663C101.846 15.3783 101.981 16.0067 102.252 16.548C102.542 17.0893 102.948 17.5147 103.47 17.824C103.992 18.1333 104.601 18.288 105.297 18.288ZM130.216 13.851L122.966 0.54H128.215L131.811 7.5C131.985 7.82867 132.13 8.138 132.246 8.428C132.382 8.69867 132.507 8.96933 132.623 9.24C132.72 9.066 132.807 8.892 132.884 8.718C132.962 8.52467 133.049 8.33133 133.145 8.138C133.242 7.92533 133.348 7.703 133.464 7.471L137.06 0.54H142.164L134.914 13.851V22H130.216V13.851ZM140.143 14.721C140.143 13.1937 140.481 11.8597 141.158 10.719C141.854 9.559 142.801 8.66 144 8.022C145.218 7.384 146.6 7.065 148.147 7.065C149.693 7.065 151.066 7.384 152.265 8.022C153.463 8.66 154.401 9.559 155.078 10.719C155.774 11.8597 156.122 13.1937 156.122 14.721C156.122 16.2483 155.774 17.5823 155.078 18.723C154.401 19.8637 153.463 20.753 152.265 21.391C151.066 22.029 149.693 22.348 148.147 22.348C146.6 22.348 145.218 22.029 144 21.391C142.801 20.753 141.854 19.8637 141.158 18.723C140.481 17.5823 140.143 16.2483 140.143 14.721ZM144.638 14.692C144.638 15.4267 144.783 16.0743 145.073 16.635C145.382 17.1763 145.798 17.6017 146.32 17.911C146.842 18.201 147.451 18.346 148.147 18.346C148.843 18.346 149.452 18.201 149.974 17.911C150.496 17.6017 150.902 17.1763 151.192 16.635C151.482 16.0743 151.627 15.4267 151.627 14.692C151.627 13.9573 151.482 13.3193 151.192 12.778C150.902 12.2367 150.496 11.821 149.974 11.531C149.452 11.2217 148.843 11.067 148.147 11.067C147.451 11.067 146.842 11.2217 146.32 11.531C145.798 11.821 145.382 12.2367 145.073 12.778C144.783 13.3193 144.638 13.9573 144.638 14.692ZM167.999 7.5H172.465V22H168.26L167.97 20.376C167.525 20.9753 166.887 21.4587 166.056 21.826C165.244 22.1933 164.403 22.377 163.533 22.377C161.89 22.377 160.585 21.8647 159.618 20.84C158.671 19.796 158.197 18.3847 158.197 16.606V7.5H162.663V14.982C162.663 16.1613 162.876 17.0313 163.301 17.592C163.726 18.1333 164.393 18.404 165.302 18.404C166.269 18.404 166.955 18.143 167.361 17.621C167.786 17.0797 167.999 16.2193 167.999 15.04V7.5ZM183.775 2.802V22H179.077V2.802H183.775ZM172.987 4.89V0.54H189.865V4.89H172.987ZM200.029 7.5H204.495V22H200.29L200 20.376C199.556 20.9753 198.918 21.4587 198.086 21.826C197.274 22.1933 196.433 22.377 195.563 22.377C193.92 22.377 192.615 21.8647 191.648 20.84C190.701 19.796 190.227 18.3847 190.227 16.606V7.5H194.693V14.982C194.693 16.1613 194.906 17.0313 195.331 17.592C195.757 18.1333 196.424 18.404 197.332 18.404C198.299 18.404 198.985 18.143 199.391 17.621C199.817 17.0797 200.029 16.2193 200.029 15.04V7.5ZM212.052 22H207.847V0.134H212.313V9.182C212.757 8.52467 213.415 8.00267 214.285 7.616C215.174 7.21 216.141 7.007 217.185 7.007C218.538 7.007 219.708 7.33567 220.694 7.993C221.699 8.65033 222.472 9.56867 223.014 10.748C223.555 11.9273 223.826 13.3097 223.826 14.895C223.826 16.3837 223.526 17.6983 222.927 18.839C222.347 19.9603 221.525 20.8303 220.462 21.449C219.418 22.0677 218.209 22.377 216.837 22.377C215.831 22.377 214.913 22.174 214.082 21.768C213.27 21.3427 212.67 20.8013 212.284 20.144L212.052 22ZM212.342 14.663C212.342 15.3783 212.487 16.0163 212.777 16.577C213.086 17.1183 213.502 17.5437 214.024 17.853C214.565 18.143 215.184 18.288 215.88 18.288C216.595 18.288 217.204 18.1333 217.707 17.824C218.229 17.5147 218.625 17.0893 218.896 16.548C219.186 16.0067 219.331 15.3783 219.331 14.663C219.331 13.9477 219.186 13.3193 218.896 12.778C218.625 12.2367 218.229 11.8113 217.707 11.502C217.204 11.1927 216.595 11.038 215.88 11.038C215.184 11.038 214.565 11.1927 214.024 11.502C213.502 11.792 213.086 12.2077 212.777 12.749C212.487 13.2903 212.342 13.9283 212.342 14.663ZM233.124 22.377C231.674 22.377 230.379 22.0483 229.238 21.391C228.117 20.7337 227.228 19.8347 226.57 18.694C225.932 17.534 225.613 16.2097 225.613 14.721C225.613 13.213 225.923 11.8887 226.541 10.748C227.179 9.588 228.059 8.67933 229.18 8.022C230.302 7.36467 231.587 7.036 233.037 7.036C234.565 7.036 235.879 7.355 236.981 7.993C238.083 8.61167 238.934 9.501 239.533 10.661C240.133 11.8017 240.432 13.1647 240.432 14.75V15.881L227.962 15.939L228.02 13.184H235.995C235.995 12.4107 235.734 11.8017 235.212 11.357C234.69 10.893 233.975 10.661 233.066 10.661C232.312 10.661 231.694 10.806 231.21 11.096C230.746 11.386 230.398 11.8403 230.166 12.459C229.934 13.0583 229.818 13.8317 229.818 14.779C229.818 16.1323 230.089 17.1377 230.63 17.795C231.191 18.433 232.051 18.752 233.211 18.752C234.062 18.752 234.768 18.607 235.328 18.317C235.889 18.027 236.247 17.621 236.401 17.099H240.49C240.239 18.7037 239.446 19.9893 238.112 20.956C236.778 21.9033 235.116 22.377 233.124 22.377Z" fill="white"/>
</svg>
