<svg width="234" height="164" viewBox="0 0 234 164" fill="none" xmlns="http://www.w3.org/2000/svg">
<path d="M228.683 25.975C225.991 15.9737 218.105 8.08808 208.104 5.39542C189.832 0.394775 116.746 0.394775 116.746 0.394775C116.746 0.394775 43.6595 0.394775 25.3879 5.20309C15.5789 7.89575 7.50097 15.9737 4.80831 25.975C0 44.2466 0 82.1361 0 82.1361C0 82.1361 0 120.218 4.80831 138.297C7.50097 148.299 15.3866 156.184 25.3879 158.877C43.8518 163.877 116.746 163.877 116.746 163.877C116.746 163.877 189.832 163.877 208.104 159.069C218.105 156.377 225.991 148.491 228.683 138.49C233.492 120.218 233.492 82.3285 233.492 82.3285C233.492 82.3285 233.684 44.2466 228.683 25.975Z" fill="#FF0000"/>
<path d="M93.4737 47.1316V117.141L154.251 82.1361L93.4737 47.1316Z" fill="white"/>
<path d="M167.823 82.1362L91.2081 126.37L91.2081 37.9026L167.823 82.1362Z" fill="#FF0000"/>
<rect x="83.5466" y="46.5649" width="23.7141" height="71.1423" fill="white"/>
<rect x="126.232" y="46.5649" width="23.7141" height="71.1423" fill="white"/>
</svg>
